<svg id="publicdomainvectors.org" xmlns="http://www.w3.org/2000/svg" viewBox="0 0 659 659">
  <title>landscape nature</title>
  <g>
    <polygon points="0 0 659 0 659 36.9 659 659 0 659 0 117 0 0" fill="#9ec6d9" fill-rule="evenodd"/>
    <path d="M660.7,42.4V71c-20-3.7-40.7-11-63.6,5.4s7.9,5.3,19,4.1c18.8-2,32.1,2.4,44.6,5.9v8.4c-30.1-5.5-33.8-8.2-70.3,3.7-34.1,11.1-22.4-19.2-26.1-30.3-6.8-1.9-34.3,13.1-53.2,11.9s-30-3.6-50-2.4c-6.5.6-68.5,6.5-66.1,14.8,0.3,1,23.1,18.3-13.3,17.6-28.4-.6-50.5-29.3-75.8-19.5-5.4,2.1-29.3,8.3-30.6,9.6-3.8,3.7,5.1,4.5,9,5.4,10.4,2.3,37.5,7.2,35.9,22.5-1,9.7-24.1,7.9-33.1,8.5-18,1.5-52.4,8.6-67.5-2.6-28.7-24.2-29.4-67.1-83.1-44C94.8,108,67.1,69.5,30.6,93.7,18,102.1,9.7,110.3,1.7,117V52.2C19.7,39.7,40.8,28.8,79.4,37.6c41.7,9.5,42.4,1.3,81.5-10.4,69.7-20.3,57.1-10.7,125,2.6,36.9,7.3,66.2,17.3,104.7,16.1,20.9-1,41.5-4,62.2-7.1,32-4.6,59.9-5.7,91.6-8.5,34.3-3,63-14.6,95.1,2C648,36.7,654.6,39.9,660.7,42.4Z" transform="translate(-1.7)" fill="#b0d8eb" fill-rule="evenodd"/>
    <rect y="402.3" width="659" height="256.62" fill="#648293"/>
    <polygon points="6.3 588.1 9.3 583.4 12.3 578.8 10 578.8 10.7 577.9 15 572.2 11.3 572.2 12.7 570.9 19.1 564.8 13.2 564.8 14.8 563.2 23.3 555.1 6.3 555.1 0 555.1 0 570.9 1.4 572.2 0 572.2 0 575.2 2 577.9 2.7 578.8 0.4 578.8 3.4 583.4 6.3 588.1" fill="#5c7584" fill-rule="evenodd"/>
    <polygon points="17 593.7 20 589.1 23 584.4 20.7 584.4 21.3 583.6 25.6 577.9 22 577.9 23.4 576.6 29.7 570.5 23.9 570.5 25.5 568.9 34 560.7 17 560.7 0.1 560.7 8.5 568.9 10.2 570.5 4.3 570.5 10.7 576.6 12 577.9 8.4 577.9 12.7 583.6 13.3 584.4 11.1 584.4 14 589.1 17 593.7" fill="#5c7584" fill-rule="evenodd"/>
    <polygon points="29 580.5 32 575.9 34.9 571.2 32.7 571.2 33.3 570.4 37.6 564.7 34 564.7 35.3 563.3 41.7 557.2 35.8 557.2 37.5 555.6 45.9 547.5 29 547.5 12 547.5 20.5 555.6 22.2 557.2 16.3 557.2 22.6 563.3 24 564.7 20.4 564.7 24.7 570.4 25.3 571.2 23 571.2 26 575.9 29 580.5" fill="#5c7584" fill-rule="evenodd"/>
    <polygon points="43 579.5 46 574.9 48.9 570.2 46.7 570.2 47.3 569.4 51.6 563.7 48 563.7 49.3 562.3 55.7 556.2 49.8 556.2 51.5 554.7 59.9 546.5 43 546.5 26 546.5 34.5 554.7 36.1 556.2 30.3 556.2 36.6 562.3 38 563.7 34.4 563.7 38.7 569.4 39.3 570.2 37 570.2 40 574.9 43 579.5" fill="#5c7584" fill-rule="evenodd"/>
    <polygon points="60.2 576.7 63.1 572 66.1 567.4 63.9 567.4 64.5 566.5 68.8 560.8 65.1 560.8 66.5 559.5 72.9 553.4 67 553.4 68.6 551.8 77.1 543.7 60.2 543.7 43.2 543.7 51.7 551.8 53.3 553.4 47.5 553.4 53.8 559.5 55.2 560.8 51.6 560.8 55.9 566.5 56.5 567.4 54.2 567.4 57.2 572 60.2 576.7" fill="#5c7584" fill-rule="evenodd"/>
    <polygon points="73.6 563.7 76.6 559.1 79.6 554.4 77.3 554.4 77.9 553.6 82.2 547.9 78.6 547.9 80 546.6 86.4 540.5 80.5 540.5 82.1 538.9 90.6 530.7 73.6 530.7 56.7 530.7 65.2 538.9 66.8 540.5 60.9 540.5 67.3 546.6 68.7 547.9 65 547.9 69.3 553.6 70 554.4 67.7 554.4 70.7 559.1 73.6 563.7" fill="#5c7584" fill-rule="evenodd"/>
    <polygon points="83.5 549.3 86.5 544.7 89.4 540 87.2 540 87.8 539.2 92.1 533.5 88.5 533.5 89.8 532.1 96.2 526 90.3 526 92 524.4 100.4 516.3 83.5 516.3 66.5 516.3 75 524.4 76.6 526 70.8 526 77.1 532.1 78.5 533.5 74.9 533.5 79.2 539.2 79.8 540 77.5 540 80.5 544.7 83.5 549.3" fill="#5c7584" fill-rule="evenodd"/>
    <polygon points="92.8 540.4 95.8 535.7 98.7 531.1 96.5 531.1 97.1 530.3 101.4 524.5 97.8 524.5 99.1 523.2 105.5 517.1 99.6 517.1 101.3 515.5 109.7 507.4 92.8 507.4 75.8 507.4 84.3 515.5 86 517.1 80.1 517.1 86.4 523.2 87.8 524.5 84.2 524.5 88.5 530.3 89.1 531.1 86.8 531.1 89.8 535.7 92.8 540.4" fill="#5c7584" fill-rule="evenodd"/>
    <polygon points="106.3 537.7 109.3 533 112.2 528.4 110 528.4 110.6 527.5 114.9 521.8 111.2 521.8 112.6 520.5 119 514.4 113.1 514.4 114.8 512.8 123.2 504.7 106.3 504.7 89.3 504.7 97.8 512.8 99.4 514.4 93.6 514.4 99.9 520.5 101.3 521.8 97.7 521.8 102 527.5 102.6 528.4 100.3 528.4 103.3 533 106.3 537.7" fill="#5c7584" fill-rule="evenodd"/>
    <polygon points="118.1 526 121.1 521.3 124.1 516.7 121.8 516.7 122.4 515.9 126.7 510.1 123.1 510.1 124.5 508.8 130.8 502.7 124.9 502.7 126.6 501.1 135 493 118.1 493 101.1 493 109.6 501.1 111.3 502.7 105.4 502.7 111.7 508.8 113.1 510.1 109.5 510.1 113.8 515.9 114.4 516.7 112.1 516.7 115.1 521.3 118.1 526" fill="#5c7584" fill-rule="evenodd"/>
    <polygon points="127.6 515.2 130.6 510.5 133.6 505.9 131.3 505.9 131.9 505 136.2 499.3 132.6 499.3 134 498 140.3 491.9 134.5 491.9 136.1 490.3 144.6 482.2 127.6 482.2 110.7 482.2 119.2 490.3 120.8 491.9 114.9 491.9 121.3 498 122.7 499.3 119 499.3 123.3 505 123.9 505.9 121.7 505.9 124.6 510.5 127.6 515.2" fill="#5c7584" fill-rule="evenodd"/>
    <polygon points="144.1 508.6 147.1 504 150.1 499.3 147.8 499.3 148.4 498.5 152.7 492.8 149.1 492.8 150.4 491.5 156.8 485.4 150.9 485.4 152.6 483.8 161 475.6 144.1 475.6 127.1 475.6 135.6 483.8 137.3 485.4 131.4 485.4 137.7 491.5 139.1 492.8 135.5 492.8 139.8 498.5 140.4 499.3 138.1 499.3 141.1 504 144.1 508.6" fill="#5c7584" fill-rule="evenodd"/>
    <polygon points="159.6 494.8 162.6 490.1 165.6 485.5 163.3 485.5 163.9 484.7 168.2 478.9 164.6 478.9 166 477.6 172.4 471.5 166.5 471.5 168.1 469.9 176.6 461.8 159.6 461.8 142.7 461.8 151.2 469.9 152.8 471.5 146.9 471.5 153.3 477.6 154.7 478.9 151 478.9 155.3 484.7 155.9 485.5 153.7 485.5 156.7 490.1 159.6 494.8" fill="#5c7584" fill-rule="evenodd"/>
    <polygon points="177.1 491.1 180.1 486.5 183.1 481.8 180.8 481.8 181.4 481 185.7 475.3 182.1 475.3 183.5 473.9 189.8 467.8 183.9 467.8 185.6 466.3 194.1 458.1 177.1 458.1 160.2 458.1 168.6 466.3 170.3 467.8 164.4 467.8 170.8 473.9 172.1 475.3 168.5 475.3 172.8 481 173.4 481.8 171.2 481.8 174.1 486.5 177.1 491.1" fill="#5c7584" fill-rule="evenodd"/>
    <polygon points="189.5 476.9 192.5 472.3 195.5 467.6 193.2 467.6 193.9 466.8 198.2 461.1 194.5 461.1 195.9 459.8 202.3 453.7 196.4 453.7 198 452.1 206.5 443.9 189.5 443.9 172.6 443.9 181.1 452.1 182.7 453.7 176.8 453.7 183.2 459.8 184.6 461.1 180.9 461.1 185.2 466.8 185.9 467.6 183.6 467.6 186.6 472.3 189.5 476.9" fill="#5c7584" fill-rule="evenodd"/>
    <polygon points="207.2 477.4 210.1 472.8 213.1 468.1 210.8 468.1 211.5 467.3 215.8 461.6 212.1 461.6 213.5 460.2 219.9 454.1 214 454.1 215.6 452.5 224.1 444.4 207.2 444.4 190.2 444.4 198.7 452.5 200.3 454.1 194.4 454.1 200.8 460.2 202.2 461.6 198.5 461.6 202.9 467.3 203.5 468.1 201.2 468.1 204.2 472.8 207.2 477.4" fill="#5c7584" fill-rule="evenodd"/>
    <polygon points="223.2 467 226.2 462.4 229.2 457.7 226.9 457.7 227.5 456.9 231.8 451.2 228.2 451.2 229.6 449.8 235.9 443.7 230.1 443.7 231.7 442.2 240.2 434 223.2 434 206.3 434 214.7 442.2 216.4 443.7 210.5 443.7 216.9 449.8 218.2 451.2 214.6 451.2 218.9 456.9 219.5 457.7 217.3 457.7 220.2 462.4 223.2 467" fill="#5c7584" fill-rule="evenodd"/>
    <polygon points="223.2 434 0 434 0 555.1 15.9 567.8 41.7 557.2 79 542.3 93.6 514.4 114.8 504.7 140.3 482.2 172.4 465.8 194.4 448.5 224.1 444.4 223.2 434" fill="#5c7584" fill-rule="evenodd"/>
    <polygon points="405.8 481.9 409.1 478.8 412.3 475.8 409.8 475.8 410.5 475.3 415.1 471.5 411.2 471.5 412.7 470.6 419.6 466.7 413.2 466.7 415 465.6 424.2 460.3 405.8 460.3 387.5 460.3 396.7 465.6 398.5 466.7 392.1 466.7 399 470.6 400.5 471.5 396.5 471.5 401.2 475.3 401.9 475.8 399.4 475.8 402.6 478.8 405.8 481.9" fill="#5c7584" fill-rule="evenodd"/>
    <polygon points="421.4 490.7 424.7 487.7 427.9 484.7 425.4 484.7 426.1 484.1 430.7 480.4 426.8 480.4 428.3 479.5 435.2 475.5 428.8 475.5 430.6 474.5 439.8 469.2 421.4 469.2 403.1 469.2 412.3 474.5 414 475.5 407.7 475.5 414.6 479.5 416.1 480.4 412.1 480.4 416.8 484.1 417.4 484.7 415 484.7 418.2 487.7 421.4 490.7" fill="#5c7584" fill-rule="evenodd"/>
    <polygon points="437.5 493.8 440.7 490.7 444 487.7 441.5 487.7 442.2 487.2 446.8 483.4 442.9 483.4 444.4 482.6 451.3 478.6 444.9 478.6 446.7 477.5 455.8 472.2 437.5 472.2 419.2 472.2 428.4 477.5 430.1 478.6 423.8 478.6 430.6 482.6 432.1 483.4 428.2 483.4 432.9 487.2 433.5 487.7 431.1 487.7 434.3 490.7 437.5 493.8" fill="#5c7584" fill-rule="evenodd"/>
    <polygon points="455.5 503.4 458.8 500.4 462 497.4 459.5 497.4 460.2 496.8 464.8 493.1 460.9 493.1 462.4 492.2 469.3 488.2 462.9 488.2 464.7 487.2 473.9 481.9 455.5 481.9 437.2 481.9 446.4 487.2 448.2 488.2 441.8 488.2 448.7 492.2 450.2 493.1 446.2 493.1 450.9 496.8 451.6 497.4 449.1 497.4 452.3 500.4 455.5 503.4" fill="#5c7584" fill-rule="evenodd"/>
    <polygon points="474.7 501.9 477.9 498.9 481.1 495.9 478.7 495.9 479.4 495.3 484 491.6 480.1 491.6 481.6 490.7 488.5 486.7 482.1 486.7 483.9 485.7 493 480.4 474.7 480.4 456.4 480.4 465.5 485.7 467.3 486.7 461 486.7 467.8 490.7 469.3 491.6 465.4 491.6 470.1 495.3 470.7 495.9 468.3 495.9 471.5 498.9 474.7 501.9" fill="#5c7584" fill-rule="evenodd"/>
    <polygon points="492.8 511.8 496.1 508.8 499.3 505.7 496.8 505.7 497.5 505.2 502.1 501.5 498.2 501.5 499.7 500.6 506.6 496.6 500.2 496.6 502 495.6 511.2 490.3 492.8 490.3 474.5 490.3 483.7 495.6 485.5 496.6 479.1 496.6 486 500.6 487.5 501.5 483.5 501.5 488.2 505.2 488.9 505.7 486.4 505.7 489.6 508.8 492.8 511.8" fill="#5c7584" fill-rule="evenodd"/>
    <polygon points="464.7 498.1 467.9 495.1 471.1 492.1 468.7 492.1 469.4 491.5 474 487.8 470.1 487.8 471.6 486.9 478.4 482.9 472.1 482.9 473.9 481.9 483 476.6 464.7 476.6 446.4 476.6 455.5 481.9 457.3 482.9 451 482.9 457.8 486.9 459.3 487.8 455.4 487.8 460 491.5 460.7 492.1 458.3 492.1 461.5 495.1 464.7 498.1" fill="#5c7584" fill-rule="evenodd"/>
    <polygon points="511 518.5 514.2 515.4 517.4 512.4 515 512.4 515.6 511.9 520.3 508.1 516.3 508.1 517.8 507.3 524.7 503.3 518.4 503.3 520.1 502.2 529.3 496.9 511 496.9 492.6 496.9 501.8 502.2 503.6 503.3 497.2 503.3 504.1 507.3 505.6 508.1 501.7 508.1 506.3 511.9 507 512.4 504.5 512.4 507.7 515.4 511 518.5" fill="#5c7584" fill-rule="evenodd"/>
    <polygon points="528.6 514.3 531.8 511.3 535 508.2 532.6 508.2 533.2 507.7 537.9 503.9 534 503.9 535.5 503.1 542.3 499.1 536 499.1 537.7 498.1 546.9 492.7 528.6 492.7 510.3 492.7 519.4 498.1 521.2 499.1 514.8 499.1 521.7 503.1 523.2 503.9 519.3 503.9 523.9 507.7 524.6 508.2 522.1 508.2 525.4 511.3 528.6 514.3" fill="#5c7584" fill-rule="evenodd"/>
    <polygon points="536.9 520.2 540.1 517.2 543.3 514.1 540.9 514.1 541.5 513.6 546.2 509.8 542.2 509.8 543.7 509 550.6 505 544.3 505 546 504 555.2 498.6 536.9 498.6 518.5 498.6 527.7 504 529.5 505 523.1 505 530 509 531.5 509.8 527.6 509.8 532.2 513.6 532.9 514.1 530.4 514.1 533.6 517.2 536.9 520.2" fill="#5c7584" fill-rule="evenodd"/>
    <polygon points="554.9 524.9 558.1 521.9 561.4 518.9 558.9 518.9 559.6 518.3 564.2 514.6 560.3 514.6 561.8 513.7 568.7 509.7 562.3 509.7 564.1 508.7 573.2 503.4 554.9 503.4 536.6 503.4 545.8 508.7 547.5 509.7 541.2 509.7 548 513.7 549.5 514.6 545.6 514.6 550.3 518.3 550.9 518.9 548.5 518.9 551.7 521.9 554.9 524.9" fill="#5c7584" fill-rule="evenodd"/>
    <polygon points="564.1 524.9 567.3 521.9 570.5 518.9 568.1 518.9 568.7 518.3 573.4 514.6 569.5 514.6 571 513.7 577.8 509.7 571.5 509.7 573.2 508.7 582.4 503.4 564.1 503.4 545.8 503.4 554.9 508.7 556.7 509.7 550.3 509.7 557.2 513.7 558.7 514.6 554.8 514.6 559.4 518.3 560.1 518.9 557.6 518.9 560.9 521.9 564.1 524.9" fill="#5c7584" fill-rule="evenodd"/>
    <polygon points="572.1 529.6 575.4 526.5 578.6 523.5 576.1 523.5 576.8 523 581.4 519.2 577.5 519.2 579 518.4 585.9 514.4 579.5 514.4 581.3 513.3 590.5 508 572.1 508 553.8 508 563 513.3 564.7 514.4 558.4 514.4 565.3 518.4 566.8 519.2 562.8 519.2 567.5 523 568.2 523.5 565.7 523.5 568.9 526.5 572.1 529.6" fill="#5c7584" fill-rule="evenodd"/>
    <polygon points="583.9 534.5 587.2 531.4 590.4 528.4 587.9 528.4 588.6 527.8 593.2 524.1 589.3 524.1 590.8 523.2 597.7 519.3 591.3 519.3 593.1 518.2 602.3 512.9 583.9 512.9 565.6 512.9 574.8 518.2 576.5 519.3 570.2 519.3 577.1 523.2 578.6 524.1 574.6 524.1 579.3 527.8 580 528.4 577.5 528.4 580.7 531.4 583.9 534.5" fill="#5c7584" fill-rule="evenodd"/>
    <polygon points="599 533.7 602.2 530.7 605.4 527.6 602.9 527.6 603.6 527.1 608.3 523.3 604.3 523.3 605.8 522.5 612.7 518.5 606.3 518.5 608.1 517.5 617.3 512.1 599 512.1 580.6 512.1 589.8 517.5 591.6 518.5 585.2 518.5 592.1 522.5 593.6 523.3 589.6 523.3 594.3 527.1 595 527.6 592.5 527.6 595.7 530.7 599 533.7" fill="#5c7584" fill-rule="evenodd"/>
    <polygon points="609.2 537.2 612.4 534.1 615.6 531.1 613.2 531.1 613.8 530.6 618.5 526.8 614.5 526.8 616 526 622.9 522 616.6 522 618.3 520.9 627.5 515.6 609.2 515.6 590.8 515.6 600 520.9 601.8 522 595.4 522 602.3 526 603.8 526.8 599.9 526.8 604.5 530.6 605.2 531.1 602.7 531.1 605.9 534.1 609.2 537.2" fill="#5c7584" fill-rule="evenodd"/>
    <polygon points="623.8 543.4 627 540.4 630.3 537.3 627.8 537.3 628.5 536.8 633.1 533.1 629.2 533.1 630.7 532.2 637.6 528.2 631.2 528.2 633 527.2 642.1 521.9 623.8 521.9 605.5 521.9 614.7 527.2 616.4 528.2 610.1 528.2 616.9 532.2 618.4 533.1 614.5 533.1 619.2 536.8 619.8 537.3 617.4 537.3 620.6 540.4 623.8 543.4" fill="#5c7584" fill-rule="evenodd"/>
    <polygon points="638.8 543 642.1 540 645.3 537 642.8 537 643.5 536.4 648.1 532.7 644.2 532.7 645.7 531.8 652.6 527.8 646.2 527.8 648 526.8 657.2 521.5 638.8 521.5 620.5 521.5 629.7 526.8 631.5 527.8 625.1 527.8 632 531.8 633.5 532.7 629.5 532.7 634.2 536.4 634.9 537 632.4 537 635.6 540 638.8 543" fill="#5c7584" fill-rule="evenodd"/>
    <polygon points="651.6 538.4 654.8 535.3 658 532.3 655.6 532.3 656.2 531.8 659 529.6 659 528 657 528 658.5 527.2 659 526.9 659 523.2 659 516.8 651.6 516.8 633.3 516.8 642.4 522.1 644.2 523.2 637.8 523.2 644.7 527.2 646.2 528 642.3 528 646.9 531.8 647.6 532.3 645.1 532.3 648.4 535.3 651.6 538.4" fill="#5c7584" fill-rule="evenodd"/>
    <polygon points="641.4 551.6 644.6 548.5 647.8 545.5 645.4 545.5 646 544.9 650.7 541.2 646.8 541.2 648.2 540.3 655.1 536.4 648.8 536.4 650.5 535.3 659 530.4 659 530 641.4 530 623 530 632.2 535.3 634 536.4 627.6 536.4 634.5 540.3 636 541.2 632.1 541.2 636.7 544.9 637.4 545.5 634.9 545.5 638.2 548.5 641.4 551.6" fill="#5c7584" fill-rule="evenodd"/>
    <polygon points="655.2 552.2 658.4 549.1 659 548.6 659 530.6 655.2 530.6 636.8 530.6 646 535.9 647.8 537 641.4 537 648.3 541 649.8 541.8 645.9 541.8 650.5 545.6 651.2 546.1 648.7 546.1 651.9 549.1 655.2 552.2" fill="#5c7584" fill-rule="evenodd"/>
    <polygon points="509.9 507.3 513.2 504.2 516.4 501.2 513.9 501.2 514.6 500.6 519.2 496.9 515.3 496.9 516.8 496 523.7 492.1 517.3 492.1 519.1 491 528.3 485.7 509.9 485.7 491.6 485.7 500.8 491 502.6 492.1 496.2 492.1 503.1 496 504.6 496.9 500.6 496.9 505.3 500.6 506 501.2 503.5 501.2 506.7 504.2 509.9 507.3" fill="#5c7584" fill-rule="evenodd"/>
    <polygon points="499.5 503.1 502.7 500 505.9 497 503.4 497 504.1 496.5 508.8 492.7 504.8 492.7 506.3 491.9 513.2 487.9 506.8 487.9 508.6 486.8 517.8 481.5 499.5 481.5 481.1 481.5 490.3 486.8 492.1 487.9 485.7 487.9 492.6 491.9 494.1 492.7 490.2 492.7 494.8 496.5 495.5 497 493 497 496.2 500 499.5 503.1" fill="#5c7584" fill-rule="evenodd"/>
    <polygon points="484.4 500.4 487.7 497.4 490.9 494.3 488.4 494.3 489.1 493.8 493.7 490.1 489.8 490.1 491.3 489.2 498.2 485.2 491.8 485.2 493.6 484.2 502.8 478.9 484.4 478.9 466.1 478.9 475.3 484.2 477.1 485.2 470.7 485.2 477.6 489.2 479.1 490.1 475.1 490.1 479.8 493.8 480.5 494.3 478 494.3 481.2 497.4 484.4 500.4" fill="#5c7584" fill-rule="evenodd"/>
    <polygon points="411.8 460.3 659 460.3 659 537.1 616 526 610.7 523 564.1 514.2 565.1 513.3 550.3 506 515.2 500.1 464 484.8 437.5 483 428.4 472.2 405.8 471.1 411.8 460.3" fill="#5c7584" fill-rule="evenodd"/>
    <polygon points="0 164 47.4 116.6 90.6 91.7 113.5 104.9 150.5 83.6 185.7 144.6 207.6 131.9 257.9 219 273.1 214 298.5 272.4 317.9 238.6 383 173.5 406.6 179.8 466.9 119.6 487.5 131.5 533.9 85.1 591.6 142.8 618.5 127.3 659 170.3 659 402.3 0 402.3 0 164" fill="#7197a9" fill-rule="evenodd"/>
    <polygon points="8.8 155.2 63.2 127.3 85 144.4 110.3 126.2 132.6 130.9 160.1 171.8 177.7 157.3 207.7 186.3 220.7 174.9 249.3 204.3 207.6 131.9 185.7 144.6 150.5 83.6 113.5 104.9 90.6 91.7 47.4 116.6 8.8 155.2" fill="#cce6f2" fill-rule="evenodd"/>
    <polygon points="341.5 215 380.8 192 414.4 215.3 461.6 179.1 474.5 201.3 516 170.8 531 192 558.5 155.2 580.2 174.4 605.6 160.4 659 192.5 659 170.3 618.5 127.3 591.6 142.8 533.9 85.1 487.5 131.5 466.9 119.6 406.6 179.8 383 173.5 341.5 215" fill="#cce6f2" fill-rule="evenodd"/>
    <polygon points="6.3 180.6 9.3 188.3 12.3 195.9 10 195.9 10.7 197.3 15 206.7 11.3 206.7 12.7 208.9 19.1 218.9 13.2 218.9 14.8 221.5 23.3 234.9 6.3 234.9 0 234.9 0 208.9 1.4 206.7 0 206.7 0 201.7 2 197.3 2.7 195.9 0.4 195.9 3.4 188.3 6.3 180.6" fill="#596a7d" fill-rule="evenodd"/>
    <polygon points="17 171.3 20 178.9 23 186.6 20.7 186.6 21.3 187.9 25.6 197.3 22 197.3 23.4 199.5 29.7 209.6 23.9 209.6 25.5 212.2 34 225.6 17 225.6 0.1 225.6 8.5 212.2 10.2 209.6 4.3 209.6 10.7 199.5 12 197.3 8.4 197.3 12.7 187.9 13.3 186.6 11.1 186.6 14 178.9 17 171.3" fill="#596a7d" fill-rule="evenodd"/>
    <polygon points="29 193.1 32 200.7 34.9 208.4 32.7 208.4 33.3 209.7 37.6 219.1 34 219.1 35.3 221.3 41.7 231.4 35.8 231.4 37.5 234 45.9 247.3 29 247.3 12 247.3 20.5 234 22.2 231.4 16.3 231.4 22.6 221.3 24 219.1 20.4 219.1 24.7 209.7 25.3 208.4 23 208.4 26 200.7 29 193.1" fill="#596a7d" fill-rule="evenodd"/>
    <polygon points="43 194.7 46 202.3 48.9 210 46.7 210 47.3 211.3 51.6 220.7 48 220.7 49.3 222.9 55.7 233 49.8 233 51.5 235.6 59.9 249 43 249 26 249 34.5 235.6 36.1 233 30.3 233 36.6 222.9 38 220.7 34.4 220.7 38.7 211.3 39.3 210 37 210 40 202.3 43 194.7" fill="#596a7d" fill-rule="evenodd"/>
    <polygon points="60.2 199.4 63.1 207 66.1 214.7 63.9 214.7 64.5 216 68.8 225.5 65.1 225.5 66.5 227.6 72.9 237.7 67 237.7 68.6 240.3 77.1 253.7 60.2 253.7 43.2 253.7 51.7 240.3 53.3 237.7 47.5 237.7 53.8 227.6 55.2 225.5 51.6 225.5 55.9 216 56.5 214.7 54.2 214.7 57.2 207 60.2 199.4" fill="#596a7d" fill-rule="evenodd"/>
    <polygon points="601.3 309.7 576 265.1 590.8 241.3 586.2 196.8 573 228.3 537 254.4 522 303.6 478.4 338 461 414.6 601.3 309.7" fill="#688b9e" fill-rule="evenodd"/>
    <polygon points="73.6 220.6 76.6 228.3 79.6 235.9 77.3 235.9 77.9 237.3 82.2 246.7 78.6 246.7 80 248.9 86.4 258.9 80.5 258.9 82.1 261.5 90.6 274.9 73.6 274.9 56.7 274.9 65.2 261.5 66.8 258.9 60.9 258.9 67.3 248.9 68.7 246.7 65 246.7 69.3 237.3 70 235.9 67.7 235.9 70.7 228.3 73.6 220.6" fill="#596a7d" fill-rule="evenodd"/>
    <polygon points="75 285.3 109.3 247 99.9 220.6 113.9 178.1 120.1 211.8 149.7 245 153.8 296.3 189 339.2 189.5 417.7 75 285.3" fill="#688b9e" fill-rule="evenodd"/>
    <polygon points="83.5 244.4 86.5 252 89.4 259.7 87.2 259.7 87.8 261 92.1 270.4 88.5 270.4 89.8 272.6 96.2 282.7 90.3 282.7 92 285.3 100.4 298.7 83.5 298.7 66.5 298.7 75 285.3 76.6 282.7 70.8 282.7 77.1 272.6 78.5 270.4 74.9 270.4 79.2 261 79.8 259.7 77.5 259.7 80.5 252 83.5 244.4" fill="#596a7d" fill-rule="evenodd"/>
    <polygon points="92.8 259.1 95.8 266.7 98.7 274.4 96.5 274.4 97.1 275.7 101.4 285.1 97.8 285.1 99.1 287.3 105.5 297.4 99.6 297.4 101.3 300 109.7 313.3 92.8 313.3 75.8 313.3 84.3 300 86 297.4 80.1 297.4 86.4 287.3 87.8 285.1 84.2 285.1 88.5 275.7 89.1 274.4 86.8 274.4 89.8 266.7 92.8 259.1" fill="#596a7d" fill-rule="evenodd"/>
    <polygon points="106.3 263.5 109.3 271.2 112.2 278.8 110 278.8 110.6 280.2 114.9 289.6 111.2 289.6 112.6 291.8 119 301.8 113.1 301.8 114.8 304.4 123.2 317.8 106.3 317.8 89.3 317.8 97.8 304.4 99.4 301.8 93.6 301.8 99.9 291.8 101.3 289.6 97.7 289.6 102 280.2 102.6 278.8 100.3 278.8 103.3 271.2 106.3 263.5" fill="#596a7d" fill-rule="evenodd"/>
    <polygon points="118.1 282.7 121.1 290.4 124.1 298 121.8 298 122.4 299.4 126.7 308.8 123.1 308.8 124.5 311 130.8 321 124.9 321 126.6 323.6 135.1 337 118.1 337 101.1 337 109.6 323.6 111.3 321 105.4 321 111.7 311 113.1 308.8 109.5 308.8 113.8 299.4 114.4 298 112.1 298 115.1 290.4 118.1 282.7" fill="#596a7d" fill-rule="evenodd"/>
    <polygon points="127.6 300.5 130.6 308.2 133.6 315.9 131.3 315.9 131.9 317.2 136.2 326.6 132.6 326.6 134 328.8 140.3 338.9 134.5 338.9 136.1 341.4 144.6 354.8 127.6 354.8 110.7 354.8 119.2 341.4 120.8 338.9 114.9 338.9 121.3 328.8 122.7 326.6 119 326.6 123.3 317.2 123.9 315.9 121.7 315.9 124.6 308.2 127.6 300.5" fill="#596a7d" fill-rule="evenodd"/>
    <polygon points="144.1 311.3 147.1 318.9 150.1 326.6 147.8 326.6 148.4 327.9 152.7 337.3 149.1 337.3 150.4 339.5 156.8 349.6 150.9 349.6 152.6 352.2 161 365.6 144.1 365.6 127.1 365.6 135.6 352.2 137.3 349.6 131.4 349.6 137.7 339.5 139.1 337.3 135.5 337.3 139.8 327.9 140.4 326.6 138.1 326.6 141.1 318.9 144.1 311.3" fill="#596a7d" fill-rule="evenodd"/>
    <polygon points="159.6 334.1 162.6 341.7 165.6 349.4 163.3 349.4 163.9 350.7 168.2 360.1 164.6 360.1 166 362.3 172.4 372.4 166.5 372.4 168.1 375 176.6 388.4 159.6 388.4 142.7 388.4 151.2 375 152.8 372.4 146.9 372.4 153.3 362.3 154.7 360.1 151 360.1 155.3 350.7 155.9 349.4 153.7 349.4 156.7 341.7 159.6 334.1" fill="#596a7d" fill-rule="evenodd"/>
    <polygon points="177.1 340.1 180.1 347.8 183.1 355.4 180.8 355.4 181.4 356.8 185.7 366.2 182.1 366.2 183.5 368.4 189.8 378.4 183.9 378.4 185.6 381 194.1 394.4 177.1 394.4 160.2 394.4 168.6 381 170.3 378.4 164.4 378.4 170.8 368.4 172.1 366.2 168.5 366.2 172.8 356.8 173.4 355.4 171.2 355.4 174.1 347.8 177.1 340.1" fill="#596a7d" fill-rule="evenodd"/>
    <polygon points="189.5 363.4 192.5 371.1 195.5 378.7 193.2 378.7 193.9 380.1 198.2 389.5 194.5 389.5 195.9 391.7 202.3 401.7 196.4 401.7 198 404.3 206.5 417.7 189.5 417.7 172.6 417.7 181.1 404.3 182.7 401.7 176.8 401.7 183.2 391.7 184.6 389.5 180.9 389.5 185.2 380.1 185.9 378.7 183.6 378.7 186.6 371.1 189.5 363.4" fill="#596a7d" fill-rule="evenodd"/>
    <polygon points="207.2 362.6 210.1 370.3 213.1 377.9 210.8 377.9 211.5 379.3 215.8 388.7 212.1 388.7 213.5 390.9 219.9 400.9 214 400.9 215.6 403.5 224.1 416.9 207.2 416.9 190.2 416.9 198.7 403.5 200.3 400.9 194.4 400.9 200.8 390.9 202.2 388.7 198.5 388.7 202.9 379.3 203.5 377.9 201.2 377.9 204.2 370.3 207.2 362.6" fill="#596a7d" fill-rule="evenodd"/>
    <polygon points="223.2 379.7 226.2 387.4 229.2 395 226.9 395 227.5 396.4 231.8 405.8 228.2 405.8 229.6 408 235.9 418 230.1 418 231.7 420.6 240.2 434 223.2 434 206.3 434 214.7 420.6 216.4 418 210.5 418 216.9 408 218.2 405.8 214.6 405.8 218.9 396.4 219.5 395 217.3 395 220.2 387.4 223.2 379.7" fill="#596a7d" fill-rule="evenodd"/>
    <polygon points="223.2 434 0 434 0 234.9 15.9 213.9 41.7 231.4 79 255.8 93.6 301.8 114.8 317.8 140.3 354.8 172.4 381.7 194.4 410.2 224.1 416.9 223.2 434" fill="#596a7d" fill-rule="evenodd"/>
    <polygon points="405.8 401.6 409.1 409.9 412.3 418.2 409.8 418.2 410.5 419.6 415.1 429.8 411.2 429.8 412.7 432.2 419.6 443 413.2 443 415 445.9 424.2 460.3 405.8 460.3 387.5 460.3 396.7 445.9 398.5 443 392.1 443 399 432.2 400.5 429.8 396.5 429.8 401.2 419.6 401.9 418.2 399.4 418.2 402.6 409.9 405.8 401.6" fill="#576475" fill-rule="evenodd"/>
    <polygon points="421.4 377.5 424.7 385.7 427.9 394 425.4 394 426.1 395.5 430.7 405.6 426.8 405.6 428.3 408 435.2 418.9 428.8 418.9 430.6 421.7 439.8 436.1 421.4 436.1 403.1 436.1 412.3 421.7 414 418.9 407.7 418.9 414.6 408 416.1 405.6 412.1 405.6 416.8 395.5 417.4 394 415 394 418.2 385.7 421.4 377.5" fill="#576475" fill-rule="evenodd"/>
    <polygon points="437.5 369.2 440.7 377.5 444 385.8 441.5 385.8 442.2 387.2 446.8 397.4 442.9 397.4 444.4 399.8 451.3 410.6 444.9 410.6 446.7 413.4 455.8 427.9 437.5 427.9 419.2 427.9 428.4 413.4 430.1 410.6 423.8 410.6 430.6 399.8 432.1 397.4 428.2 397.4 432.9 387.2 433.5 385.8 431.1 385.8 434.3 377.5 437.5 369.2" fill="#576475" fill-rule="evenodd"/>
    <polygon points="455.5 342.9 458.8 351.1 462 359.4 459.5 359.4 460.2 360.9 464.8 371.1 460.9 371.1 462.4 373.4 469.3 384.3 462.9 384.3 464.7 387.1 473.9 401.5 455.5 401.5 437.2 401.5 446.4 387.1 448.2 384.3 441.8 384.3 448.7 373.4 450.2 371.1 446.2 371.1 450.9 360.9 451.6 359.4 449.1 359.4 452.3 351.1 455.5 342.9" fill="#576475" fill-rule="evenodd"/>
    <polygon points="474.7 347 477.9 355.3 481.1 363.6 478.7 363.6 479.4 365 484 375.2 480.1 375.2 481.6 377.6 488.5 388.4 482.1 388.4 483.9 391.2 493 405.7 474.7 405.7 456.4 405.7 465.5 391.2 467.3 388.4 461 388.4 467.8 377.6 469.3 375.2 465.4 375.2 470.1 365 470.7 363.6 468.3 363.6 471.5 355.3 474.7 347" fill="#576475" fill-rule="evenodd"/>
    <polygon points="492.8 320.1 496.1 328.3 499.3 336.6 496.8 336.6 497.5 338.1 502.1 348.3 498.2 348.3 499.7 350.6 506.6 361.5 500.2 361.5 502 364.3 511.2 378.8 492.8 378.8 474.5 378.8 483.7 364.3 485.5 361.5 479.1 361.5 486 350.6 487.5 348.3 483.5 348.3 488.2 338.1 488.9 336.6 486.4 336.6 489.6 328.3 492.8 320.1" fill="#576475" fill-rule="evenodd"/>
    <polygon points="464.7 357.3 467.9 365.6 471.1 373.9 468.7 373.9 469.4 375.3 474 385.5 470.1 385.5 471.6 387.9 478.4 398.7 472.1 398.7 473.9 401.5 483 416 464.7 416 446.4 416 455.5 401.5 457.3 398.7 451 398.7 457.8 387.9 459.3 385.5 455.4 385.5 460 375.3 460.7 373.9 458.3 373.9 461.5 365.6 464.7 357.3" fill="#576475" fill-rule="evenodd"/>
    <polygon points="511 301.9 514.2 310.2 517.4 318.5 515 318.5 515.6 320 520.3 330.1 516.3 330.1 517.8 332.5 524.7 343.3 518.4 343.3 520.1 346.1 529.3 360.6 511 360.6 492.6 360.6 501.8 346.1 503.6 343.3 497.2 343.3 504.1 332.5 505.6 330.1 501.7 330.1 506.3 320 507 318.5 504.5 318.5 507.7 310.2 511 301.9" fill="#576475" fill-rule="evenodd"/>
    <polygon points="528.6 313.3 531.8 321.6 535 329.9 532.6 329.9 533.2 331.3 537.9 341.5 534 341.5 535.5 343.9 542.3 354.7 536 354.7 537.7 357.5 546.9 372 528.6 372 510.3 372 519.4 357.5 521.2 354.7 514.8 354.7 521.7 343.9 523.2 341.5 519.3 341.5 523.9 331.3 524.6 329.9 522.1 329.9 525.4 321.6 528.6 313.3" fill="#576475" fill-rule="evenodd"/>
    <polygon points="536.9 297.3 540.1 305.6 543.3 313.8 540.9 313.8 541.5 315.3 546.2 325.5 542.2 325.5 543.7 327.8 550.6 338.7 544.3 338.7 546 341.5 555.2 356 536.9 356 518.5 356 527.7 341.5 529.5 338.7 523.1 338.7 530 327.8 531.5 325.5 527.6 325.5 532.2 315.3 532.9 313.8 530.4 313.8 533.6 305.6 536.9 297.3" fill="#576475" fill-rule="evenodd"/>
    <polygon points="554.9 284.4 558.1 292.6 561.4 300.9 558.9 300.9 559.6 302.4 564.2 312.5 560.3 312.5 561.8 314.9 568.7 325.7 562.3 325.7 564.1 328.6 573.2 343 554.9 343 536.6 343 545.8 328.6 547.5 325.7 541.2 325.7 548 314.9 549.5 312.5 545.6 312.5 550.3 302.4 550.9 300.9 548.5 300.9 551.7 292.6 554.9 284.4" fill="#576475" fill-rule="evenodd"/>
    <polygon points="564.1 284.4 567.3 292.6 570.5 300.9 568.1 300.9 568.7 302.4 573.4 312.5 569.5 312.5 571 314.9 577.8 325.7 571.5 325.7 573.2 328.6 582.4 343 564.1 343 545.8 343 554.9 328.6 556.7 325.7 550.3 325.7 557.2 314.9 558.7 312.5 554.8 312.5 559.4 302.4 560.1 300.9 557.6 300.9 560.9 292.6 564.1 284.4" fill="#576475" fill-rule="evenodd"/>
    <polygon points="572.1 271.7 575.4 280 578.6 288.3 576.1 288.3 576.8 289.7 581.4 299.9 577.5 299.9 579 302.3 585.9 313.1 579.5 313.1 581.3 315.9 590.5 330.4 572.1 330.4 553.8 330.4 563 315.9 564.7 313.1 558.4 313.1 565.3 302.3 566.8 299.9 562.8 299.9 567.5 289.7 568.1 288.3 565.7 288.3 568.9 280 572.1 271.7" fill="#576475" fill-rule="evenodd"/>
    <polygon points="583.9 258.4 587.2 266.7 590.4 275 587.9 275 588.6 276.5 593.2 286.6 589.3 286.6 590.8 289 597.7 299.8 591.3 299.8 593.1 302.7 602.3 317.1 583.9 317.1 565.6 317.1 574.8 302.7 576.5 299.8 570.2 299.8 577.1 289 578.6 286.6 574.6 286.6 579.3 276.5 580 275 577.5 275 580.7 266.7 583.9 258.4" fill="#576475" fill-rule="evenodd"/>
    <polygon points="599 260.5 602.2 268.8 605.4 277.1 602.9 277.1 603.6 278.5 608.3 288.7 604.3 288.7 605.8 291.1 612.7 301.9 606.3 301.9 608.1 304.7 617.3 319.2 599 319.2 580.6 319.2 589.8 304.7 591.6 301.9 585.2 301.9 592.1 291.1 593.6 288.7 589.6 288.7 594.3 278.5 595 277.1 592.5 277.1 595.7 268.8 599 260.5" fill="#576475" fill-rule="evenodd"/>
    <polygon points="609.2 251 612.4 259.3 615.6 267.5 613.2 267.5 613.8 269 618.5 279.2 614.5 279.2 616 281.6 622.9 292.4 616.6 292.4 618.3 295.2 627.5 309.7 609.2 309.7 590.8 309.7 600 295.2 601.8 292.4 595.4 292.4 602.3 281.6 603.8 279.2 599.9 279.2 604.5 269 605.2 267.5 602.7 267.5 605.9 259.3 609.2 251" fill="#576475" fill-rule="evenodd"/>
    <polygon points="623.8 234.1 627 242.3 630.3 250.6 627.8 250.6 628.5 252.1 633.1 262.2 629.2 262.2 630.7 264.6 637.6 275.5 631.2 275.5 633 278.3 642.1 292.7 623.8 292.7 605.5 292.7 614.7 278.3 616.4 275.5 610.1 275.5 616.9 264.6 618.4 262.2 614.5 262.2 619.2 252.1 619.8 250.6 617.4 250.6 620.6 242.3 623.8 234.1" fill="#576475" fill-rule="evenodd"/>
    <polygon points="638.8 235.1 642.1 243.4 645.3 251.6 642.8 251.6 643.5 253.1 648.1 263.3 644.2 263.3 645.7 265.6 652.6 276.5 646.2 276.5 648 279.3 657.2 293.8 638.8 293.8 620.5 293.8 629.7 279.3 631.5 276.5 625.1 276.5 632 265.6 633.5 263.3 629.5 263.3 634.2 253.1 634.9 251.6 632.4 251.6 635.6 243.4 638.8 235.1" fill="#576475" fill-rule="evenodd"/>
    <polygon points="651.6 247.8 654.8 256 658 264.3 655.6 264.3 656.2 265.8 659 271.7 659 275.9 657 275.9 658.5 278.3 659 279.1 659 289.1 659 306.4 651.6 306.4 633.3 306.4 642.4 292 644.2 289.1 637.8 289.1 644.7 278.3 646.2 275.9 642.3 275.9 646.9 265.8 647.6 264.3 645.1 264.3 648.4 256 651.6 247.8" fill="#576475" fill-rule="evenodd"/>
    <polygon points="641.4 211.9 644.6 220.1 647.8 228.4 645.4 228.4 646 229.9 650.7 240 646.8 240 648.2 242.4 655.1 253.3 648.8 253.3 650.5 256.1 659 269.4 659 270.5 641.4 270.5 623 270.5 632.2 256.1 634 253.3 627.6 253.3 634.5 242.4 636 240 632.1 240 636.7 229.9 637.4 228.4 634.9 228.4 638.2 220.1 641.4 211.9" fill="#576475" fill-rule="evenodd"/>
    <polygon points="655.2 210.2 658.4 218.5 659 219.9 659 268.9 655.2 268.9 636.8 268.9 646 254.4 647.8 251.6 641.4 251.6 648.3 240.7 649.8 238.4 645.9 238.4 650.5 228.2 651.2 226.7 648.7 226.7 651.9 218.5 655.2 210.2" fill="#576475" fill-rule="evenodd"/>
    <polygon points="509.9 332.5 513.2 340.8 516.4 349 513.9 349 514.6 350.5 519.2 360.7 515.3 360.7 516.8 363.1 523.7 373.9 517.3 373.9 519.1 376.7 528.3 391.2 509.9 391.2 491.6 391.2 500.8 376.7 502.6 373.9 496.2 373.9 503.1 363.1 504.6 360.7 500.6 360.7 505.3 350.5 506 349 503.5 349 506.7 340.8 509.9 332.5" fill="#576475" fill-rule="evenodd"/>
    <polygon points="499.5 343.9 502.7 352.2 505.9 360.4 503.4 360.4 504.1 361.9 508.8 372.1 504.8 372.1 506.3 374.4 513.2 385.3 506.8 385.3 508.6 388.1 517.8 402.6 499.5 402.6 481.1 402.6 490.3 388.1 492.1 385.3 485.7 385.3 492.6 374.4 494.1 372.1 490.2 372.1 494.8 361.9 495.5 360.4 493 360.4 496.2 352.2 499.5 343.9" fill="#576475" fill-rule="evenodd"/>
    <polygon points="484.4 351.1 487.7 359.4 490.9 367.7 488.4 367.7 489.1 369.1 493.7 379.3 489.8 379.3 491.3 381.7 498.2 392.5 491.8 392.5 493.6 395.3 502.8 409.8 484.4 409.8 466.1 409.8 475.3 395.3 477.1 392.5 470.7 392.5 477.6 381.7 479.1 379.3 475.1 379.3 479.8 369.1 480.5 367.7 478 367.7 481.2 359.4 484.4 351.1" fill="#576475" fill-rule="evenodd"/>
    <polygon points="411.8 460.3 659 460.3 659 251.3 616 281.6 610.7 289.7 564.1 313.7 565.1 316.1 550.3 335.8 515.2 351.9 464 393.7 437.5 398.6 428.4 427.9 405.8 431 411.8 460.3" fill="#546375" fill-rule="evenodd"/>
    <polygon points="651.7 259.6 648.2 268.5 644.8 277.3 647.4 277.3 646.7 278.8 641.7 289.7 645.9 289.7 644.3 292.2 637 303.8 643.8 303.8 641.9 306.8 632.1 322.2 651.7 322.2 659 322.2 659 292.2 657.4 289.7 659 289.7 659 284 656.6 278.8 655.9 277.3 658.5 277.3 655.1 268.5 651.7 259.6" fill="#414a55" fill-rule="evenodd"/>
    <polygon points="639.4 248.9 635.9 257.7 632.5 266.5 635.1 266.5 634.4 268.1 629.4 278.9 633.6 278.9 632 281.4 624.7 293 631.5 293 629.6 296 619.8 311.4 639.4 311.4 658.9 311.4 649.1 296 647.2 293 654 293 646.7 281.4 645.1 278.9 649.3 278.9 644.3 268.1 643.6 266.5 646.2 266.5 642.8 257.7 639.4 248.9" fill="#414a55" fill-rule="evenodd"/>
    <polygon points="625.6 274 622.1 282.8 618.7 291.6 621.3 291.6 620.6 293.2 615.7 304 619.8 304 618.2 306.5 610.9 318.1 617.7 318.1 615.8 321.1 606 336.5 625.6 336.5 645.1 336.5 635.3 321.1 633.4 318.1 640.2 318.1 632.9 306.5 631.3 304 635.5 304 630.5 293.2 629.8 291.6 632.4 291.6 629 282.8 625.6 274" fill="#414a55" fill-rule="evenodd"/>
    <polygon points="609.5 275.8 606 284.6 602.6 293.5 605.2 293.5 604.5 295 599.5 305.9 603.7 305.9 602.1 308.4 594.8 319.9 601.6 319.9 599.7 322.9 589.9 338.4 609.5 338.4 629 338.4 619.2 322.9 617.3 319.9 624.1 319.9 616.8 308.4 615.2 305.9 619.4 305.9 614.4 295 613.7 293.5 616.3 293.5 612.9 284.6 609.5 275.8" fill="#414a55" fill-rule="evenodd"/>
    <polygon points="589.7 281.2 586.2 290.1 582.8 298.9 585.4 298.9 584.7 300.4 579.7 311.3 583.9 311.3 582.3 313.8 575 325.4 581.8 325.4 579.9 328.4 570.1 343.8 589.7 343.8 609.2 343.8 599.4 328.4 597.5 325.4 604.3 325.4 597 313.8 595.4 311.3 599.6 311.3 594.6 300.4 593.9 298.9 596.5 298.9 593.1 290.1 589.7 281.2" fill="#414a55" fill-rule="evenodd"/>
    <polygon points="574.1 305.7 570.7 314.5 567.3 323.3 569.9 323.3 569.2 324.9 564.2 335.7 568.4 335.7 566.8 338.3 559.5 349.8 566.3 349.8 564.4 352.8 554.6 368.2 574.1 368.2 593.7 368.2 583.9 352.8 582 349.8 588.8 349.8 581.5 338.3 579.9 335.7 584.1 335.7 579.1 324.9 578.4 323.3 581 323.3 577.6 314.5 574.1 305.7" fill="#414a55" fill-rule="evenodd"/>
    <polygon points="562.8 333.1 559.4 341.9 555.9 350.7 558.6 350.7 557.8 352.3 552.9 363.1 557.1 363.1 555.5 365.6 548.2 377.2 554.9 377.2 553 380.2 543.3 395.6 562.8 395.6 582.3 395.6 572.6 380.2 570.7 377.2 577.5 377.2 570.1 365.6 568.5 363.1 572.7 363.1 567.8 352.3 567 350.7 569.7 350.7 566.2 341.9 562.8 333.1" fill="#414a55" fill-rule="evenodd"/>
    <polygon points="552.1 350 548.7 358.8 545.2 367.6 547.8 367.6 547.1 369.2 542.2 380 546.4 380 544.8 382.5 537.4 394.1 544.2 394.1 542.3 397.1 532.6 412.5 552.1 412.5 571.6 412.5 561.9 397.1 560 394.1 566.7 394.1 559.4 382.5 557.8 380 562 380 557 369.2 556.3 367.6 559 367.6 555.5 358.8 552.1 350" fill="#414a55" fill-rule="evenodd"/>
    <polygon points="536.5 355.1 533.1 364 529.7 372.8 532.3 372.8 531.6 374.3 526.6 385.2 530.8 385.2 529.2 387.7 521.9 399.3 528.7 399.3 526.8 402.3 517 417.7 536.5 417.7 556.1 417.7 546.3 402.3 544.4 399.3 551.2 399.3 543.9 387.7 542.3 385.2 546.5 385.2 541.5 374.3 540.8 372.8 543.4 372.8 540 364 536.5 355.1" fill="#414a55" fill-rule="evenodd"/>
    <polygon points="522.9 377.3 519.5 386.1 516.1 394.9 518.7 394.9 518 396.5 513 407.3 517.2 407.3 515.6 409.8 508.3 421.4 515.1 421.4 513.2 424.4 503.4 439.8 522.9 439.8 542.5 439.8 532.7 424.4 530.8 421.4 537.6 421.4 530.3 409.8 528.7 407.3 532.8 407.3 527.9 396.5 527.2 394.9 529.8 394.9 526.4 386.1 522.9 377.3" fill="#414a55" fill-rule="evenodd"/>
    <polygon points="511.9 397.8 508.5 406.6 505.1 415.4 507.7 415.4 507 417 502 427.8 506.2 427.8 504.6 430.3 497.3 441.9 504.1 441.9 502.2 444.9 492.4 460.3 511.9 460.3 531.5 460.3 521.7 444.9 519.8 441.9 526.6 441.9 519.3 430.3 517.7 427.8 521.9 427.8 516.9 417 516.2 415.4 518.8 415.4 515.4 406.6 511.9 397.8" fill="#414a55" fill-rule="evenodd"/>
    <polygon points="659 460.3 659 292.2 625.6 305.2 604.3 325.4 579.9 343.8 557.8 380 526.8 417.7 507.3 460.3 659 460.3" fill="#414a55" fill-rule="evenodd"/>
    <polygon points="143.7 366.3 139.9 375.8 136.2 385.4 139.1 385.4 138.3 387.1 132.9 398.8 137.4 398.8 135.7 401.5 127.8 414.1 135.1 414.1 133.1 417.3 122.5 434 143.7 434 164.8 434 154.2 417.3 152.2 414.1 159.5 414.1 151.6 401.5 149.9 398.8 154.4 398.8 149 387.1 148.2 385.4 151.1 385.4 147.4 375.8 143.7 366.3" fill="#495360" fill-rule="evenodd"/>
    <polygon points="125.6 338.4 121.9 347.9 118.2 357.4 121 357.4 120.3 359.1 114.9 370.9 119.4 370.9 117.7 373.6 109.8 386.1 117.1 386.1 115.1 389.4 104.5 406.1 125.6 406.1 146.8 406.1 136.2 389.4 134.2 386.1 141.5 386.1 133.6 373.6 131.9 370.9 136.4 370.9 131 359.1 130.2 357.4 133.1 357.4 129.4 347.9 125.6 338.4" fill="#495360" fill-rule="evenodd"/>
    <polygon points="107.1 328.8 103.3 338.4 99.6 347.9 102.5 347.9 101.7 349.6 96.3 361.4 100.9 361.4 99.1 364.1 91.2 376.6 98.5 376.6 96.5 379.9 85.9 396.6 107.1 396.6 128.2 396.6 117.7 379.9 115.6 376.6 122.9 376.6 115 364.1 113.3 361.4 117.8 361.4 112.4 349.6 111.7 347.9 114.5 347.9 110.8 338.4 107.1 328.8" fill="#495360" fill-rule="evenodd"/>
    <polygon points="86.3 298.4 82.5 307.9 78.8 317.5 81.7 317.5 80.9 319.2 75.5 330.9 80 330.9 78.3 333.7 70.4 346.2 77.7 346.2 75.7 349.4 65.1 366.2 86.3 366.2 107.4 366.2 96.8 349.4 94.8 346.2 102.1 346.2 94.2 333.7 92.5 330.9 97 330.9 91.6 319.2 90.9 317.5 93.7 317.5 90 307.9 86.3 298.4" fill="#495360" fill-rule="evenodd"/>
    <polygon points="64.1 303.2 60.4 312.7 56.7 322.3 59.5 322.3 58.7 324 53.4 335.7 57.9 335.7 56.2 338.5 48.3 351 55.6 351 53.5 354.2 43 370.9 64.1 370.9 85.3 370.9 74.7 354.2 72.7 351 80 351 72.1 338.5 70.3 335.7 74.9 335.7 69.5 324 68.7 322.3 71.6 322.3 67.8 312.7 64.1 303.2" fill="#495360" fill-rule="evenodd"/>
    <polygon points="43.2 272.1 39.5 281.6 35.7 291.2 38.6 291.2 37.8 292.9 32.4 304.6 37 304.6 35.3 307.3 27.3 319.9 34.7 319.9 32.6 323.1 22 339.8 43.2 339.8 64.3 339.8 53.8 323.1 51.7 319.9 59.1 319.9 51.1 307.3 49.4 304.6 53.9 304.6 48.6 292.9 47.8 291.2 50.6 291.2 46.9 281.6 43.2 272.1" fill="#495360" fill-rule="evenodd"/>
    <polygon points="75.7 315.1 72 324.7 68.2 334.2 71.1 334.2 70.3 335.9 64.9 347.6 69.5 347.6 67.7 350.4 59.8 362.9 67.1 362.9 65.1 366.2 54.5 382.9 75.7 382.9 96.8 382.9 86.3 366.2 84.2 362.9 91.5 362.9 83.6 350.4 81.9 347.6 86.4 347.6 81 335.9 80.3 334.2 83.1 334.2 79.4 324.7 75.7 315.1" fill="#495360" fill-rule="evenodd"/>
    <polygon points="22.3 251.1 18.5 260.7 14.8 270.2 17.7 270.2 16.9 271.9 11.5 283.7 16 283.7 14.3 286.4 6.4 298.9 13.7 298.9 11.7 302.2 1.1 318.9 22.3 318.9 43.4 318.9 32.8 302.2 30.8 298.9 38.1 298.9 30.2 286.4 28.5 283.7 33 283.7 27.6 271.9 26.8 270.2 29.7 270.2 26 260.7 22.3 251.1" fill="#495360" fill-rule="evenodd"/>
    <polygon points="1.9 264.3 0 269.2 0 332.1 1.9 332.1 23.1 332.1 12.5 315.3 10.4 312.1 17.8 312.1 9.8 299.6 8.1 296.8 12.7 296.8 7.3 285.1 6.5 283.4 9.4 283.4 5.6 273.9 1.9 264.3" fill="#495360" fill-rule="evenodd"/>
    <path d="M1.7,313.5H15.2L4.6,296.8l-2.1-3.2H9.9L2,281l-0.3-.4v32.9h0Zm0-35.2H4.8l-3.1-6.7v6.7Z" transform="translate(-1.7)" fill="#495360" fill-rule="evenodd"/>
    <polygon points="23.4 286.4 19.7 296 16 305.5 18.8 305.5 18.1 307.2 12.7 319 17.2 319 15.5 321.7 7.6 334.2 14.9 334.2 12.9 337.5 2.3 354.2 23.4 354.2 44.6 354.2 34 337.5 32 334.2 39.3 334.2 31.4 321.7 29.7 319 34.2 319 28.8 307.2 28 305.5 30.9 305.5 27.2 296 23.4 286.4" fill="#495360" fill-rule="evenodd"/>
    <polygon points="35.5 299.6 31.8 309.1 28.1 318.7 30.9 318.7 30.2 320.4 24.8 332.1 29.3 332.1 27.6 334.8 19.7 347.4 27 347.4 25 350.6 14.4 367.3 35.5 367.3 56.7 367.3 46.1 350.6 44.1 347.4 51.4 347.4 43.5 334.8 41.8 332.1 46.3 332.1 40.9 320.4 40.1 318.7 43 318.7 39.3 309.1 35.5 299.6" fill="#495360" fill-rule="evenodd"/>
    <polygon points="52.9 307.9 49.2 317.5 45.4 327 48.3 327 47.5 328.7 42.1 340.5 46.7 340.5 45 343.2 37 355.7 44.4 355.7 42.3 359 31.7 375.7 52.9 375.7 74.1 375.7 63.5 359 61.4 355.7 68.8 355.7 60.8 343.2 59.1 340.5 63.6 340.5 58.3 328.7 57.5 327 60.3 327 56.6 317.5 52.9 307.9" fill="#495360" fill-rule="evenodd"/>
    <polygon points="0 434 0 313.5 42.5 317.5 80 351 107.1 362.7 117.7 396.6 146.8 406.1 143.7 434 0 434" fill="#495360" fill-rule="evenodd"/>
    <polygon points="298.5 272.4 327.9 308.2 365.2 324.8 369.3 365.2 392.1 402.3 251.2 402.3 259.5 352.7 231.5 305.1 243.9 262.6 241.9 230.5 298.5 272.4" fill="#688b9e" fill-rule="evenodd"/>
    <g>
      <path d="M660.7,606.6v14.3l-515-.9,515-13.4h0ZM1.7,586.1V572l494.2,6.6L1.7,586.1h0Zm0-43.6v-2.2l263.1-12.4L1.7,525v-6.2l195.6-3.3L49.3,503l516.5,0.4-310.3,11L644,528Z" transform="translate(-1.7)" fill="#7d9cad" fill-rule="evenodd"/>
      <path d="M1.7,586.1V572l494.2,6.6L1.7,586.1h0Zm0-43.6v-2.2l263.1-12.4L1.7,525v-6.2l195.6-3.3L49.3,503l516.5,0.4-310.3,11L644,528,1.7,542.4h0Zm659,64.2v14.3l-515-.9Z" transform="translate(-1.7)" fill="#7d9cad" fill-rule="evenodd"/>
      <g>
        <polygon points="7.7 585.9 9.3 583.4 12.3 578.8 10 578.8 10.7 577.9 15 572.2 11.3 572.2 11.4 572.1 1.1 572 1.4 572.2 0 572.2 0 575.2 2 577.9 2.7 578.8 0.4 578.8 3.4 583.4 5 586 7.7 585.9" fill="#7d9cad" fill-rule="evenodd"/>
        <polygon points="22.2 585.7 23 584.4 20.7 584.4 21.3 583.6 25.6 577.9 22 577.9 23.4 576.6 27.8 572.4 6 572.1 10.7 576.6 12 577.9 8.4 577.9 12.7 583.6 13.3 584.4 11.1 584.4 12 585.9 22.2 585.7" fill="#7d9cad" fill-rule="evenodd"/>
        <polygon points="29 580.5 32 575.9 34.2 572.4 23.7 572.3 26 575.9 29 580.5" fill="#7d9cad" fill-rule="evenodd"/>
        <polygon points="43 579.5 46 574.9 47.4 572.6 38.5 572.5 40 574.9 43 579.5" fill="#7d9cad" fill-rule="evenodd"/>
        <polygon points="60.2 576.7 62.6 572.8 57.7 572.8 60.2 576.7" fill="#7d9cad" fill-rule="evenodd"/>
        <polygon points="86.3 540.5 86.4 540.5 80.5 540.5 82.1 538.9 84.9 536.2 63.4 537.2 65.2 538.9 66.8 540.5 60.9 540.5 61.5 541 86.3 540.5" fill="#7d9cad" fill-rule="evenodd"/>
        <path d="M90.9,540.4l0.3-.4H88.9l0.6-.8,2.4-3.2-13,.6,1.9,2.6,0.6,0.8H79.2l0.4,0.7,11.2-.3h0Zm7-14.4h0Zm-5.8-.1,1.6-1.5,7.7-7.3-31.7.5,7.1,6.8,1.4,1.4H92.1Z" transform="translate(-1.7)" fill="#7d9cad" fill-rule="evenodd"/>
        <path d="M94.5,540.3l3-4.6h0l-5.8.3,2.8,4.4h0.1Zm7.4-14.3,1.2-1.6H99.5l1.4-1.3,6.4-6.1h-5.7l-19.4.3,6,5.8,1.4,1.3H85.9l1,1.4,15,0.2h0Zm8.7-17.9,0.8-.8h-9.7Z" transform="translate(-1.7)" fill="#7d9cad" fill-rule="evenodd"/>
        <path d="M108,537.7l1.6-2.5h-3.1l1.5,2.4h0Zm5.3-11.5,3.3-4.4H113l1.4-1.3,3.8-3.7-20,.3,3.5,3.3,1.4,1.3H99.4l3.2,4.3h10.7Zm7.2-17.2,4.5-4.3H91l2.1,2Z" transform="translate(-1.7)" fill="#7d9cad" fill-rule="evenodd"/>
        <path d="M119.8,526l3-4.7,3-4.6-11.8.2,2.8,4.4,3,4.7h0Zm5.7-16.6,0.6-.6,6-5.8H107.4l5.5,5.3Z" transform="translate(-1.7)" fill="#7d9cad" fill-rule="evenodd"/>
        <polygon points="130.9 510 133.6 505.9 131.3 505.9 131.9 505 133.4 503 121.8 503 123.3 505 123.9 505.9 121.7 505.9 123.9 509.4 130.9 510" fill="#7d9cad" fill-rule="evenodd"/>
        <polygon points="144.1 508.6 147.1 504 147.7 503 140.5 503 141.1 504 144.1 508.6" fill="#7d9cad" fill-rule="evenodd"/>
        <path d="M1.7,518.8V525l87.5,0.9,4.5-8.7L1.7,518.8h0Zm0,21.4v2.2l79.9-1.8,2.2-4.3L1.7,540.2h0ZM109.2,508l7.3-3.4,1.9-1.6h-69Z" transform="translate(-1.7)" fill="#7d9cad" fill-rule="evenodd"/>
      </g>
      <g>
        <polygon points="455.5 503.4 455.7 503.3 455.4 503.3 455.5 503.4" fill="#7d9cad" fill-rule="evenodd"/>
        <polygon points="497.4 505.7 496.8 505.7 497.5 505.2 499.8 503.3 485.8 503.3 488.2 505.2 488.9 505.7 486.4 505.7 486.8 506.1 497.4 505.7" fill="#7d9cad" fill-rule="evenodd"/>
        <polygon points="522 504.9 524.6 503.4 497.3 503.3 501.2 505.6 522 504.9" fill="#7d9cad" fill-rule="evenodd"/>
        <polygon points="537.4 504.3 537.9 503.9 534 503.9 535 503.4 522.2 503.4 523.2 503.9 519.3 503.9 520.5 504.9 537.4 504.3" fill="#7d9cad" fill-rule="evenodd"/>
        <polygon points="545.9 504 546 504 547 503.4 526.7 503.4 527.7 504 528.9 504.6 545.9 504" fill="#7d9cad" fill-rule="evenodd"/>
        <polygon points="564.1 503.4 554.9 503.4 536.6 503.4 538.2 504.3 564.1 503.4" fill="#7d9cad" fill-rule="evenodd"/>
        <polygon points="564.1 503.4 545.8 503.4 546.8 504 564.1 503.4" fill="#7d9cad" fill-rule="evenodd"/>
        <polygon points="572.1 529.6 575.4 526.5 576.2 525.7 567.7 525.4 568.9 526.5 572.1 529.6" fill="#7d9cad" fill-rule="evenodd"/>
        <polygon points="589.5 529.2 590.4 528.4 587.9 528.4 588.6 527.8 590.6 526.2 576.6 525.7 579.3 527.8 580 528.4 577.5 528.4 578.6 529.5 589.5 529.2" fill="#7d9cad" fill-rule="evenodd"/>
        <polygon points="604.1 528.9 605.4 527.6 602.9 527.6 603.6 527.1 604.1 526.7 593.3 526.3 594.3 527.1 595 527.6 592.5 527.6 594.1 529.1 604.1 528.9" fill="#7d9cad" fill-rule="evenodd"/>
        <polygon points="616.3 528.6 618 527.2 603.5 526.7 603.8 526.8 599.9 526.8 602.5 528.9 616.3 528.6" fill="#7d9cad" fill-rule="evenodd"/>
        <polygon points="634.5 528.2 631.2 528.2 632.1 527.7 614.4 527.1 614.7 527.2 616.4 528.2 610.1 528.2 611 528.7 634.5 528.2" fill="#7d9cad" fill-rule="evenodd"/>
        <polygon points="631.1 527.6 631.5 527.8 625.1 527.8 626.1 528.4 642.3 528 631.1 527.6" fill="#7d9cad" fill-rule="evenodd"/>
        <polygon points="512.1 505.2 513.2 504.2 514.1 503.4 505.8 503.3 506.7 504.2 507.9 505.4 512.1 505.2" fill="#7d9cad" fill-rule="evenodd"/>
        <path d="M627.2,528.4l-4.3-1.1L644,528l-16.8.4h0Zm-85.8-24.2-5.3-.9h29.7Z" transform="translate(-1.7)" fill="#7d9cad" fill-rule="evenodd"/>
      </g>
      <path d="M1.7,518.8V525l57.8,0.6-1.2-1.9H79.1l-2.8-6.2L1.7,518.8h0Zm0,21.4v2.2l67.5-1.5-2.4-3.7L1.7,540.2h0Zm0,31.7v14.1l95.1-1.4-7.3-11.5L1.7,572h0Zm68.7-67.2L69.6,503H49.3Z" transform="translate(-1.7)" fill="#7d9cad" fill-rule="evenodd"/>
      <path d="M71.6,503l-0.8,1.8,126.6,10.7-5.7-12.4H71.6Zm20.9,14.3L87,525.9l89.8,1-6.9-11-77.4,1.3h0ZM80.3,536.5l-2.7,4.2,106.4-2.4-3.9-6.2-0.2-.3-99.7,4.7h0ZM57.4,572.7l-8,12.6,162.9-2.5-5.2-8.1-149.8-2h0Zm133.6,47.4-0.8-1.2L145.7,620h45.2Z" transform="translate(-1.7)" fill="#7d9cad" fill-rule="evenodd"/>
      <path d="M617.1,527.1l-1,1.6L644,528l-26.9-.9h0Zm-17.7,81.1-8,12.6h69.2V606.6Z" transform="translate(-1.7)" fill="#7d9cad" fill-rule="evenodd"/>
      <path d="M464,503.3l-1.7,3.7,103.5-3.7H464Zm-8.3,18.1-3.4,7.5h27.8l-1.8,2.8,78.4-1.8-0.7-1.1h27.8l-1.4-3.1-126.6-4.5h0ZM449,578l-0.9,1.3,47.7-.7L449,578h0Zm-22,34.7-4.9,7.8,192.1,0.3L606.1,608Z" transform="translate(-1.7)" fill="#7d9cad" fill-rule="evenodd"/>
      <path d="M406.6,503.3l-2.3,5.8,16.5-.6-2-5.2H406.6Zm-6.3,16.2-4.2,10.8-1.3,3.4,35.6-.8-1-2.6-3.8-9.9-25.2-.9h0Zm-10.1,57.7-1.4,3,47.5-.7-0.8-1.7-45.3-.6h0Zm-16.9,36.9-2.9,6.3h84.6l-3.9-8.5Z" transform="translate(-1.7)" fill="#7d9cad" fill-rule="evenodd"/>
    </g>
    <polygon points="28.1 374.4 11 418.2 0 446.5 0 462 7 462 3.4 469.8 0 477.3 0 659 108.5 659 76.7 608.6 67.2 593.7 100.9 593.7 64.5 536.2 56.6 523.7 77.4 523.7 52.8 469.8 49.2 462 62.2 462 45.2 418.2 28.1 374.4" fill="#141e24" fill-rule="evenodd"/>
    <polygon points="129.9 316.4 107.1 374.8 84.4 433.2 101.7 433.2 97 443.6 64.1 515.5 91.9 515.5 81.3 532.2 32.8 608.8 77.7 608.8 65.1 628.7 46 659 213.8 659 194.6 628.7 182 608.8 227 608.8 178.4 532.2 167.9 515.5 195.6 515.5 162.7 443.6 158 433.2 175.4 433.2 152.6 374.8 129.9 316.4" fill="#37404a" fill-rule="evenodd"/>
    <polygon points="646.6 373.4 629.6 417.2 612.5 461 625.5 461 622 468.8 597.3 522.7 618.1 522.7 610.2 535.2 573.8 592.7 607.5 592.7 598.1 607.6 565.5 659 659 659 659 405 646.6 373.4" fill="#141e24" fill-rule="evenodd"/>
    <polygon points="516.3 329.9 493.6 388.3 470.8 446.7 488.2 446.7 483.5 457.1 450.6 528.9 478.4 528.9 467.8 545.6 419.2 622.3 464.2 622.3 451.6 642.1 440.9 659 591.7 659 581.1 642.1 568.5 622.3 613.4 622.3 564.9 545.6 554.3 528.9 582.1 528.9 549.2 457.1 544.5 446.7 561.8 446.7 539.1 388.3 516.3 329.9" fill="#37404a" fill-rule="evenodd"/>
    <polygon points="411 487.6 394.4 530.2 377.8 572.8 390.4 572.8 387 580.4 363 632.9 383.3 632.9 375.5 645 366.7 659 455.2 659 446.4 645 438.7 632.9 459 632.9 435 580.4 431.5 572.8 444.2 572.8 427.6 530.2 411 487.6" fill="#546375" fill-rule="evenodd"/>
  </g>
</svg>
